<svg width="37" height="28" viewBox="0 0 37 28" fill="none" xmlns="http://www.w3.org/2000/svg">
<path d="M18.5824 2.26769C18.1975 2.55494 17.8314 2.86655 17.4863 3.20059C16.463 4.22124 15.6515 5.434 15.0984 6.76921C14.5452 8.10442 14.2614 9.53577 14.2631 10.981V18.0151L0.894533 23.0248V11.0043C0.893528 8.95171 1.46692 6.93973 2.54988 5.19601C3.63283 3.4523 5.18213 2.04641 7.02252 1.13739C8.8629 0.228358 10.9209 -0.14754 12.9638 0.0522089C15.0067 0.251958 16.953 1.01939 18.5824 2.26769Z" fill="#FF6A2A"/>
<path d="M36.2846 11.0043V22.7309L22.916 27.7359V11.0043C22.9175 9.31374 22.5285 7.64568 21.7793 6.13022C21.03 4.61477 19.9409 3.29288 18.5967 2.26763C20.2261 1.01933 22.1724 0.251897 24.2153 0.0521479C26.2582 -0.147602 28.3162 0.228297 30.1566 1.13732C31.997 2.04635 33.5463 3.45223 34.6292 5.19595C35.7122 6.93967 36.2856 8.95165 36.2846 11.0043Z" fill="#FF6A2A"/>
</svg>
